<svg width="684.253" height="684.253" xmlns="http://www.w3.org/2000/svg">

 <g>
  <title>background</title>
  <rect fill="none" id="canvas_background" height="402" width="582" y="-1" x="-1"/>
 </g>
 <g>
  <title>Layer 1</title>
  <g id="svg_1">
   <g id="svg_2">
    <g id="svg_3">
     <g id="svg_4">
      <path id="svg_5" fill="#bc2fbc" d="m342.122,0c-119.069,0 -215.55,96.519 -215.55,215.549c0,119.059 215.549,468.704 215.549,468.704s215.559,-349.645 215.559,-468.704c0.001,-119.03 -96.518,-215.549 -215.558,-215.549zm0,382.326c-91.947,0 -166.786,-74.8 -166.786,-166.777c-0.01,-91.957 74.83,-166.786 166.786,-166.786c91.967,0 166.786,74.83 166.786,166.786c0,91.977 -74.82,166.777 -166.786,166.777z"/>
      <path id="svg_6" fill="#bc2fbc" d="m456.013,279.661l-119.831,-151.086l-102.323,145.644l3.253,7.494l-1.612,0.703l59.344,0l12.721,0c-4.631,-6.448 -7.376,-14.333 -7.376,-22.891c0,-21.641 17.508,-39.198 39.149,-39.198c21.641,0 39.198,17.557 39.198,39.208c0,8.559 -2.745,16.443 -7.406,22.891l87.072,0l-0.821,-1.036l-1.622,-0.274l0.254,-1.455z"/>
      <polygon id="svg_7" fill="#bc2fbc" points="228.104,282.416 228.925,282.416 228.612,281.703     "/>
      <path id="svg_8" fill="#bc2fbc" d="m469.994,243.551l-7.728,-1.309l-2.061,12.232c2.628,2.062 5.022,3.732 7.132,4.914l2.657,-15.837z"/>
      <path id="svg_9" fill="#bc2fbc" d="m459.041,261.518l-3.048,18.143l1.387,1.729l6.126,1.026l3.703,-22.188l-2.687,4.905c-1.66,-0.909 -3.527,-2.198 -5.481,-3.615z"/>
      <path id="svg_10" fill="#bc2fbc" d="m226.082,256.301c-0.518,0.195 -1.055,0.43 -1.553,0.576l-1.671,-6.145c0.205,-0.059 0.459,-0.234 0.674,-0.313l-2.12,-4.885l-7.142,3.136l14.343,33.023l5.256,-7.484l-7.787,-17.908z"/>
      <polygon id="svg_11" fill="#bc2fbc" points="229.97,284.839 235.5,282.416 228.925,282.416     "/>
      <path id="svg_12" fill="#bc2fbc" d="m335.341,116.265c15.671,21.27 89.612,120.349 123.7,145.253l1.163,-7.044c-37.654,-29.77 -121.58,-144.53 -122.528,-145.781l-2.824,-3.869l-2.462,4.094c-22.208,36.931 -84.512,133.49 -108.879,141.501l2.55,5.882c29.39,-11.129 95.436,-117.311 109.28,-140.036z"/>
      <path id="svg_13" fill="#bc2fbc" d="m467.356,259.388l-0.147,0.84l0.381,-0.694c-0.078,-0.038 -0.146,-0.107 -0.234,-0.146z"/>
     </g>
    </g>
   </g>
  </g>
  <g id="svg_14"/>
  <g id="svg_15"/>
  <g id="svg_16"/>
  <g id="svg_17"/>
  <g id="svg_18"/>
  <g id="svg_19"/>
  <g id="svg_20"/>
  <g id="svg_21"/>
  <g id="svg_22"/>
  <g id="svg_23"/>
  <g id="svg_24"/>
  <g id="svg_25"/>
  <g id="svg_26"/>
  <g id="svg_27"/>
  <g id="svg_28"/>
 </g>
</svg>